<?xml version="1.0" standalone="no"?>
<!DOCTYPE svg PUBLIC "-//W3C//DTD SVG 20010904//EN"
 "http://www.w3.org/TR/2001/REC-SVG-20010904/DTD/svg10.dtd">
<svg version="1.0" xmlns="http://www.w3.org/2000/svg"
 width="1436.000000pt" height="1436.000000pt" viewBox="0 0 1436.000000 1436.000000"
 preserveAspectRatio="xMidYMid meet">
<metadata>
Created by potrace 1.14, written by Peter Selinger 2001-2017
</metadata>
<g transform="translate(0.000000,1436.000000) scale(0.100000,-0.100000)"
fill="#000000" stroke="none">
<path d="M7145 12547 c-93 -97 -284 -449 -370 -680 -105 -287 -173 -614 -191
-933 l-7 -122 -41 -6 c-348 -55 -824 -263 -1172 -511 l-101 -72 -49 81 c-224
368 -543 664 -909 841 -1122 546 -2571 -32 -3497 -1395 -454 -667 -731 -1453
-799 -2267 -15 -184 -7 -625 15 -793 89 -679 340 -1242 736 -1654 403 -419
917 -636 1510 -636 l146 0 29 -97 c171 -578 588 -1113 1198 -1542 355 -249
857 -495 1326 -651 655 -217 1293 -323 2031 -337 816 -15 1550 93 2280 336
344 115 610 228 884 377 838 455 1401 1065 1631 1769 19 58 35 113 35 122 0
13 10 14 63 8 93 -12 370 -9 472 4 352 46 658 165 938 365 520 372 881 997
1007 1746 39 236 45 319 45 655 -1 355 -14 500 -71 800 -256 1332 -1095 2530
-2149 3067 -310 158 -598 248 -920 288 -131 17 -419 14 -554 -5 -640 -91
-1189 -471 -1535 -1062 -39 -67 -74 -123 -77 -123 -3 0 -46 32 -95 71 -382
305 -860 528 -1317 614 -78 15 -147 29 -152 30 -15 4 0 222 26 374 68 405 237
749 498 1016 84 86 91 96 91 133 0 55 -37 92 -93 92 -36 0 -47 -7 -124 -82
-306 -297 -513 -739 -578 -1231 -8 -65 -15 -146 -16 -180 -2 -111 18 -102
-234 -103 -121 0 -235 -3 -252 -7 l-33 -6 0 45 c0 159 54 494 111 694 87 303
243 635 389 825 48 63 56 94 36 134 -19 37 -44 51 -87 51 -25 0 -42 -10 -74
-43z m1745 -4245 c270 -63 497 -188 685 -377 204 -205 327 -429 387 -707 30
-139 32 -419 4 -548 -64 -297 -184 -520 -390 -725 -272 -270 -603 -407 -986
-407 -299 1 -537 74 -790 243 -296 198 -515 535 -586 899 -27 139 -25 389 4
527 125 586 581 1021 1167 1112 101 16 407 5 505 -17z m-3244 -137 c233 -41
423 -137 592 -299 245 -235 363 -529 349 -870 -22 -522 -388 -949 -907 -1058
-136 -28 -373 -22 -511 15 -387 102 -704 419 -805 802 -32 122 -44 350 -24
473 98 616 694 1043 1306 937z"/>
<path d="M8433 7465 c-179 -50 -330 -193 -384 -364 -25 -77 -29 -230 -10 -301
26 -91 75 -174 146 -246 216 -220 552 -220 771 0 283 284 178 752 -201 896
-77 29 -244 37 -322 15z"/>
<path d="M5295 7486 c-170 -56 -291 -194 -314 -359 -28 -199 73 -383 257 -470
63 -30 74 -32 177 -32 127 1 185 19 270 83 104 79 163 189 172 325 13 185 -84
348 -257 430 -57 28 -77 32 -165 34 -63 2 -115 -2 -140 -11z"/>
</g>
</svg>
